<svg width="48" height="48" viewBox="0 0 48 48" fill="none" xmlns="http://www.w3.org/2000/svg">
<path d="M37.4982 32.9996C38.0891 32.9996 38.6743 33.116 39.2203 33.3421C39.7662 33.5683 40.2623 33.8998 40.6802 34.3176C41.098 34.7355 41.4295 35.2316 41.6556 35.7775C41.8818 36.3235 41.9982 36.9087 41.9982 37.4996C41.9982 38.0906 41.8818 38.6757 41.6556 39.2217C41.4295 39.7676 41.098 40.2637 40.6802 40.6816C40.2623 41.0994 39.7662 41.4309 39.2203 41.6571C38.6743 41.8832 38.0891 41.9996 37.4982 41.9996C36.3047 41.9996 35.1601 41.5255 34.3162 40.6816C33.4723 39.8377 32.9982 38.6931 32.9982 37.4996C32.9982 36.3061 33.4723 35.1615 34.3162 34.3176C35.1601 33.4737 36.3047 32.9996 37.4982 32.9996ZM39.5202 30.3116C38.8636 30.1157 38.1833 30.0108 37.4982 29.9996C33.3642 29.9996 29.9982 33.3641 29.9982 37.4996C26.4492 38.2796 22.3092 37.6076 19.0092 35.9306C18.5885 35.7165 18.1108 35.6411 17.6447 35.7152C17.1785 35.7893 16.7478 36.0091 16.4142 36.3431L11.1762 41.5601C11.0369 41.6996 10.8714 41.8102 10.6893 41.8857C10.5072 41.9612 10.3121 42 10.1149 42C9.91781 42 9.72262 41.9612 9.54052 41.8857C9.35842 41.8102 9.19299 41.6996 9.05368 41.5601L6.43768 38.9531C6.15739 38.6719 6 38.2911 6 37.8941C6 37.4971 6.15739 37.1163 6.43768 36.8351L11.6757 31.6136C12.3462 30.9431 12.5427 29.9126 12.1062 29.0711C10.3659 25.6887 9.90722 21.7912 10.8147 18.0973C11.7222 14.4033 13.9347 11.162 17.0442 8.9711C22.6362 4.9631 29.9577 5.0171 35.5017 9.0911C42.5217 14.2481 43.8387 23.5511 39.5202 30.3116Z" fill="#000E3B"/>
</svg>
