<svg width="48" height="48" viewBox="0 0 48 48" fill="none" xmlns="http://www.w3.org/2000/svg">
<path d="M8 36.002C6.9 36.002 5.95867 35.6106 5.176 34.828C4.39333 34.0453 4.00133 33.1033 4 32.002V10.002C4 8.90195 4.392 7.96062 5.176 7.17795C5.96 6.39529 6.90133 6.00329 8 6.00195H40C41.1 6.00195 42.042 6.39395 42.826 7.17795C43.61 7.96195 44.0013 8.90329 44 10.002V32.002C44 33.102 43.6087 34.044 42.826 34.828C42.0433 35.612 41.1013 36.0033 40 36.002H34L35.4 37.402C35.6 37.602 35.75 37.8273 35.85 38.078C35.95 38.3286 36 38.5866 36 38.852V40.002C36 40.5686 35.808 41.0433 35.424 41.426C35.04 41.8086 34.5653 42.0006 34 42.002H14C13.4333 42.002 12.9587 41.81 12.576 41.426C12.1933 41.042 12.0013 40.5673 12 40.002V38.852C12 38.5853 12.05 38.3273 12.15 38.078C12.25 37.8286 12.4 37.6033 12.6 37.402L14 36.002H8ZM8 32.002H40V10.002H8V32.002Z" fill="#000E3B"/>
</svg>
