<svg width="48" height="52" viewBox="0 0 48 52" fill="none" xmlns="http://www.w3.org/2000/svg">
<path d="M39.4302 3.71289H8.5731C7.66379 3.71289 6.79172 4.07411 6.14874 4.7171C5.50575 5.36008 5.14453 6.23215 5.14453 7.14146V44.8558C5.14453 45.7651 5.50575 46.6371 6.14874 47.2801C6.79172 47.9231 7.66379 48.2843 8.5731 48.2843H39.4302C40.3396 48.2843 41.2116 47.9231 41.8546 47.2801C42.4976 46.6371 42.8588 45.7651 42.8588 44.8558V7.14146C42.8588 6.23215 42.4976 5.36008 41.8546 4.7171C41.2116 4.07411 40.3396 3.71289 39.4302 3.71289Z" stroke="#000E3B" stroke-width="6.26508" stroke-linecap="round" stroke-linejoin="round"/>
<path d="M34.1468 32.8532H31.2634C28.7434 32.8532 26.2577 32.2669 24.0017 31.1389C21.7486 30.0073 19.2613 29.4201 16.74 29.4247H13.86M5.14453 13.9961H42.8588M34.2874 31.1389C34.2874 32.4897 34.0213 33.8272 33.5044 35.0751C32.9875 36.323 32.2299 37.4569 31.2748 38.412C30.3197 39.3672 29.1858 40.1248 27.9378 40.6417C26.6899 41.1586 25.3524 41.4247 24.0017 41.4247C22.6509 41.4247 21.3134 41.1586 20.0655 40.6417C18.8176 40.1248 17.6837 39.3672 16.7286 38.412C15.7735 37.4569 15.0158 36.323 14.4989 35.0751C13.982 33.8272 13.716 32.4897 13.716 31.1389C13.716 28.411 14.7996 25.7948 16.7286 23.8659C18.6575 21.9369 21.2737 20.8532 24.0017 20.8532C26.7296 20.8532 29.3458 21.9369 31.2748 23.8659C33.2037 25.7948 34.2874 28.411 34.2874 31.1389Z" stroke="#000E3B" stroke-width="6.26508" stroke-linecap="round" stroke-linejoin="round"/>
</svg>
