<svg width="49" height="46" viewBox="0 0 49 46" fill="none" xmlns="http://www.w3.org/2000/svg">
<path d="M22.7575 18.1848H26.1173V15.7123H23.4223L21.1712 1.79548C21.1279 1.52396 21.0234 1.28197 20.8749 1.10883C20.7263 0.935693 20.5423 0.841586 20.3528 0.841797H16.7434C16.5539 0.841586 16.3699 0.935693 16.2214 1.10883C16.0728 1.28197 15.9684 1.52396 15.925 1.79548L13.6716 15.7123H10.9693V18.1848H22.7575ZM17.4082 3.31079H19.6857L21.692 15.7052H15.4019L17.4082 3.31079ZM21.0728 31.819H16.021C15.9105 31.8185 15.801 31.8501 15.6989 31.9121C15.5967 31.974 15.5038 32.065 15.4255 32.1798C15.3473 32.2947 15.2852 32.4311 15.2428 32.5813C15.2005 32.7315 15.1787 32.8926 15.1787 33.0552V39.2542C15.1784 39.4171 15.1999 39.5786 15.2422 39.7292C15.2844 39.8798 15.3464 40.0167 15.4247 40.1319C15.503 40.2471 15.596 40.3384 15.6983 40.4006C15.8007 40.4627 15.9103 40.4945 16.021 40.494H21.0728C21.1835 40.4945 21.2932 40.4627 21.3955 40.4006C21.4979 40.3384 21.5908 40.2471 21.6691 40.1319C21.7474 40.0167 21.8094 39.8798 21.8517 39.7292C21.8939 39.5786 21.9155 39.4171 21.9151 39.2542V33.0552C21.9151 32.8926 21.8933 32.7315 21.851 32.5813C21.8086 32.4311 21.7465 32.2947 21.6683 32.1798C21.59 32.065 21.4971 31.974 21.395 31.9121C21.2928 31.8501 21.1833 31.8185 21.0728 31.819ZM20.2328 38.0144H16.8634V34.295H20.2232L20.2328 38.0144ZM10.1269 31.819H11.8116V38.0144H10.1269V31.819ZM37.0728 23.1404H38.7575V29.3359H37.0728V23.1404ZM37.0728 11.9893H38.7575V18.1848H37.0728V11.9893ZM47.1787 3.31079H35.3905C35.28 3.31079 35.1705 3.34288 35.0685 3.40523C34.9664 3.46758 34.8737 3.55896 34.7957 3.67413C34.7176 3.7893 34.6558 3.926 34.6138 4.0764C34.5717 4.2268 34.5502 4.38794 34.5505 4.55058V28.0996H0.863399C0.752892 28.0996 0.643471 28.1317 0.541405 28.194C0.43934 28.2564 0.346637 28.3478 0.268609 28.4629C0.19058 28.5781 0.128759 28.7148 0.0866887 28.8652C0.0446182 29.0156 0.0231252 29.1767 0.0234409 29.3394V44.2098C0.0231252 44.3725 0.0446182 44.5336 0.0866887 44.684C0.128759 44.8344 0.19058 44.9711 0.268609 45.0863C0.346637 45.2015 0.43934 45.2929 0.541405 45.3552C0.643471 45.4175 0.752892 45.4496 0.863399 45.4496H47.1811C47.2918 45.4501 47.4015 45.4184 47.5038 45.3562C47.6061 45.2941 47.6991 45.2028 47.7774 45.0876C47.8557 44.9723 47.9177 44.8355 47.96 44.6849C48.0022 44.5342 48.0238 44.3728 48.0234 44.2098V4.55058C48.0238 4.38734 48.0021 4.22562 47.9597 4.07476C47.9174 3.9239 47.8551 3.78688 47.7766 3.67162C47.698 3.55635 47.6048 3.46512 47.5021 3.40319C47.3995 3.34126 47.2896 3.30985 47.1787 3.31079ZM34.5481 35.5348H24.4422V30.5898H34.5481V35.5348ZM1.70576 30.5898H12.654V42.9842H1.70576V30.5898ZM14.3363 30.5898H22.7575V35.5348H22.7287V38.0074H22.7575V42.9524H14.3363V30.5898ZM24.4422 38.0074H34.5481V42.9524H24.4422V38.0074ZM46.3363 42.9524H36.2304V21.9042H46.3363V42.9524ZM36.2304 19.4246V5.79038H46.3363V19.4246H36.2304Z" fill="#000E3B"/>
</svg>
