<svg width="48" height="48" viewBox="0 0 48 48" fill="none" xmlns="http://www.w3.org/2000/svg">
<path d="M24.0496 43.9122C19.407 42.7479 15.574 40.0945 12.5506 35.9521C9.52726 31.8098 8.01624 27.211 8.01758 22.1558V9.98019L24.0496 3.99219L40.0815 9.98019V22.1558C40.0815 27.2123 38.5705 31.8118 35.5485 35.9541C32.5265 40.0965 28.6935 42.7492 24.0496 43.9122ZM24.0496 39.7206C27.2893 38.7226 29.9947 36.7512 32.1657 33.8064C34.3367 30.8617 35.6059 27.5769 35.9733 23.9522H24.0496V8.23369L12.0256 12.7247V23.054C12.0256 23.2869 12.059 23.5863 12.1258 23.9522H24.0496V39.7206Z" fill="#000E3B"/>
</svg>
