<svg width="72" height="72" viewBox="0 0 72 72" fill="none" xmlns="http://www.w3.org/2000/svg">
<path d="M33.2168 6.10742C34.454 3.96457 37.546 3.96456 38.7832 6.10742L63.2803 48.5361C64.5169 50.6789 62.9703 53.3574 60.4961 53.3574H11.5039C9.02975 53.3574 7.48309 50.6789 8.71973 48.5361L33.2168 6.10742Z" fill="#FFA347" stroke="black" stroke-width="1.28571"/>
<path d="M38.7619 24.9159L38.1921 40.3444H33.1954L32.6256 24.9159H38.7619ZM35.6937 47.7081C34.8463 47.7081 34.1195 47.4122 33.5131 46.8205C32.9141 46.2215 32.6183 45.4946 32.6256 44.6399C32.6183 43.8071 32.9141 43.0948 33.5131 42.5031C34.1195 41.9114 34.8463 41.6155 35.6937 41.6155C36.4973 41.6155 37.2059 41.9114 37.8196 42.5031C38.4405 43.0948 38.7546 43.8071 38.7619 44.6399C38.7546 45.2097 38.6049 45.7284 38.3127 46.1959C38.0277 46.6561 37.6552 47.025 37.195 47.3026C36.7347 47.5729 36.2343 47.7081 35.6937 47.7081Z" fill="black"/>
</svg>
