<svg width="48" height="48" viewBox="0 0 48 48" fill="none" xmlns="http://www.w3.org/2000/svg">
<path d="M5.5 17.976C7.76715 15.2739 10.599 13.1015 13.7962 11.6118C16.9935 10.1221 20.4784 9.35123 24.0056 9.35352C27.5329 9.35581 31.0167 10.1312 34.212 11.625C37.4073 13.1189 40.2364 15.295 42.5 18" stroke="#000E3B" stroke-width="5.08605" stroke-linecap="round" stroke-linejoin="round"/>
<path d="M11.2812 23.9274C12.8402 22.0696 14.7875 20.576 16.9859 19.5519C19.1844 18.5278 21.5806 17.9981 24.0059 18C26.4312 18.0019 28.8266 18.5354 31.0234 19.563C33.2203 20.5905 35.1652 22.0871 36.7213 23.9474M17.1113 30.0054C17.9558 28.9993 19.0106 28.1904 20.2013 27.6358C21.3921 27.0812 22.69 26.7943 24.0036 26.7952C25.3172 26.7962 26.6146 27.085 27.8046 27.6413C28.9946 28.1977 30.0482 29.0081 30.8913 30.0154" stroke="#000E3B" stroke-width="5.08605" stroke-linecap="round" stroke-linejoin="round"/>
<path d="M23.999 35.4102C24.1905 35.4102 24.3465 35.5654 24.3467 35.7568C24.3467 35.9485 24.1907 36.1045 23.999 36.1045C23.8076 36.1043 23.6523 35.9483 23.6523 35.7568C23.6525 35.5655 23.8077 35.4103 23.999 35.4102Z" fill="white" stroke="#000E3B" stroke-width="5.08605"/>
</svg>
