<svg width="37" height="30" viewBox="0 0 37 30" fill="none" xmlns="http://www.w3.org/2000/svg">
<path d="M3.7 30C2.6825 30 1.81177 29.6331 1.0878 28.8994C0.363833 28.1656 0.00123333 27.2825 0 26.25V3.75C0 2.71875 0.3626 1.83625 1.0878 1.1025C1.813 0.36875 2.68373 0.00125 3.7 0H33.3C34.3175 0 35.1888 0.3675 35.914 1.1025C36.6392 1.8375 37.0012 2.72 37 3.75V26.25C37 27.2812 36.638 28.1644 35.914 28.8994C35.1901 29.6344 34.3187 30.0012 33.3 30H3.7ZM18.5 16.875L3.7 7.5V26.25H33.3V7.5L18.5 16.875ZM18.5 13.125L33.3 3.75H3.7L18.5 13.125ZM3.7 7.5V3.75V26.25V7.5Z" fill="white"/>
</svg>
