<svg width="64" height="64" viewBox="0 0 64 64" fill="none" xmlns="http://www.w3.org/2000/svg">
<path fill-rule="evenodd" clip-rule="evenodd" d="M57.4792 20.4658C58.0609 21.0831 58.5154 21.809 58.8166 22.6019C59.1177 23.3949 59.2597 24.2394 59.2345 25.0873C59.2092 25.9351 59.0171 26.7697 58.6692 27.5433C58.3213 28.3169 57.8244 29.0144 57.2069 29.596L27.6985 57.4036C26.4654 58.5654 24.8251 59.196 23.1313 59.1596C21.4375 59.1232 19.8259 58.4226 18.6439 57.2089L6.1975 44.4227C5.00284 43.1954 4.34467 41.5437 4.36778 39.8311C4.39088 38.1185 5.09336 36.4853 6.32069 35.2906C7.54802 34.0959 9.19966 33.4378 10.9123 33.4609C12.6249 33.484 14.2581 34.1865 15.4528 35.4138L23.4662 43.6458L48.353 20.1956C49.5993 19.021 51.2612 18.3897 52.973 18.4403C54.6849 18.491 56.3065 19.2196 57.4811 20.4658" fill="#785DC8"/>
</svg>
