<svg width="40" height="48" viewBox="0 0 40 48" fill="none" xmlns="http://www.w3.org/2000/svg">
<path d="M22.0177 45.5829C22.0173 46.0469 21.8327 46.4917 21.5044 46.8196C21.1699 47.1378 20.7293 47.3207 20.2677 47.3329H2.45508C1.99095 47.3329 1.54583 47.1486 1.21764 46.8204C0.889453 46.4922 0.705078 46.0471 0.705078 45.5829C0.705078 36.0116 11.1841 28.5916 20.2397 28.5916C20.702 28.5977 21.1436 28.784 21.4705 29.1109C21.7974 29.4377 21.9837 29.8794 21.9897 30.3416L22.0177 45.5829ZM31.3534 17.1769C30.458 19.3534 28.9338 21.2133 26.9757 22.5189C25.0175 23.8244 22.7145 24.5163 20.3611 24.5059C17.2031 24.4948 14.1781 23.2338 11.9472 20.9986C9.7164 18.7634 8.46133 15.7359 8.45641 12.5779C8.46061 10.2166 9.16725 7.90983 10.4864 5.95128C11.7946 3.98593 13.66 2.45603 15.8433 1.55767C18.0266 0.659307 20.4285 0.433414 22.7411 0.908946C25.0534 1.35695 27.1791 2.49561 28.8311 4.17561C30.5087 5.84043 31.6468 7.97125 32.0977 10.2913C32.5314 12.61 32.274 15.0051 31.3534 17.1769ZM30.4434 44.0896C30.0607 44.0858 29.6816 44.0147 29.3234 43.8796C28.9655 43.7253 28.6407 43.5035 28.3667 43.2263L25.2634 40.1229C25.0962 39.9616 24.9628 39.7685 24.871 39.5551C24.7792 39.3416 24.7308 39.112 24.7286 38.8796C24.7265 38.6473 24.7707 38.4168 24.8586 38.2017C24.9465 37.9866 25.0763 37.7912 25.2406 37.6268C25.4048 37.4624 25.6001 37.3323 25.8151 37.2443C26.0302 37.1562 26.2606 37.1118 26.4929 37.1137C26.7253 37.1156 26.955 37.1638 27.1685 37.2554C27.3821 37.347 27.5752 37.4802 27.7367 37.6473L30.4667 40.3773L36.3467 34.4739C36.6785 34.1648 37.1173 33.9965 37.5706 34.0045C38.024 34.0125 38.4566 34.1962 38.7772 34.5168C39.0978 34.8375 39.2815 35.27 39.2895 35.7234C39.2975 36.1768 39.1292 36.6155 38.8201 36.9473L32.5201 43.2239C32.2594 43.5004 31.9407 43.7156 31.5867 43.8539C31.2263 44.0112 30.8367 44.0907 30.4434 44.0873" fill="#0D99FF"/>
</svg>
