<svg width="36" height="41" viewBox="0 0 36 41" fill="none" xmlns="http://www.w3.org/2000/svg">
<path d="M32.7536 5.125H3.2625C1.48661 5.125 0 6.60645 0 8.37617V19.2027C0 29.1885 8.01161 37.1562 18.0161 37.1562C27.9804 37.1562 36 29.1885 36 19.2027V8.37617C36 6.58242 34.5777 5.125 32.7536 5.125ZM19.7357 26.626C18.7393 27.5709 17.2125 27.5148 16.3286 26.626C7.19196 17.9055 7.09554 18.2098 7.09554 16.7604C7.09554 15.407 8.20446 14.302 9.5625 14.302C10.9286 14.302 10.8562 14.6062 18.0161 21.4529C25.2964 14.4941 25.1357 14.302 26.4938 14.302C27.8518 14.302 28.9607 15.407 28.9607 16.7604C28.9607 18.1857 28.7277 18.0176 19.7357 26.626Z" fill="#14AE5C"/>
</svg>
