<svg width="36" height="38" viewBox="0 0 36 38" fill="none" xmlns="http://www.w3.org/2000/svg">
<path d="M30.0938 15.75H20.25C19.3549 15.75 18.4964 15.3944 17.8635 14.7615C17.2306 14.1286 16.875 13.2701 16.875 12.375V2.53125C16.875 2.45666 16.8454 2.38512 16.7926 2.33238C16.7399 2.27963 16.6683 2.25 16.5938 2.25H10.125C8.93153 2.25 7.78693 2.72411 6.94302 3.56802C6.09911 4.41193 5.625 5.55653 5.625 6.75V29.25C5.625 30.4435 6.09911 31.5881 6.94302 32.432C7.78693 33.2759 8.93153 33.75 10.125 33.75H25.875C27.0685 33.75 28.2131 33.2759 29.057 32.432C29.9009 31.5881 30.375 30.4435 30.375 29.25V16.0312C30.375 15.9567 30.3454 15.8851 30.2926 15.8324C30.2399 15.7796 30.1683 15.75 30.0938 15.75Z" fill="#FFA629"/>
<path d="M29.4764 13.26L19.3648 3.14832C19.3451 3.12877 19.3201 3.11547 19.2929 3.11009C19.2657 3.10471 19.2375 3.1075 19.2119 3.11809C19.1863 3.12869 19.1643 3.14662 19.1489 3.16964C19.1334 3.19266 19.1251 3.21973 19.125 3.24746V12.3747C19.125 12.6731 19.2435 12.9592 19.4545 13.1702C19.6655 13.3812 19.9516 13.4997 20.25 13.4997H29.3773C29.405 13.4996 29.4321 13.4913 29.4551 13.4758C29.4781 13.4604 29.496 13.4385 29.5066 13.4128C29.5172 13.3872 29.52 13.359 29.5146 13.3318C29.5093 13.3046 29.496 13.2796 29.4764 13.26Z" fill="#FFA629"/>
<path d="M25.0723 19.2852C25.8984 19.2852 26.6953 19.3906 27.4629 19.6016C28.2305 19.8125 28.9453 20.1172 29.6074 20.5156C30.2695 20.9141 30.876 21.3828 31.4268 21.9219C31.9775 22.4609 32.4492 23.0674 32.8418 23.7412C33.2344 24.415 33.5361 25.1328 33.7471 25.8945C33.958 26.6562 34.0664 27.4531 34.0723 28.2852C34.0723 29.1113 33.9668 29.9082 33.7559 30.6758C33.5449 31.4434 33.2402 32.1582 32.8418 32.8203C32.4434 33.4824 31.9746 34.0889 31.4355 34.6396C30.8965 35.1904 30.29 35.6621 29.6162 36.0547C28.9424 36.4473 28.2246 36.749 27.4629 36.96C26.7012 37.1709 25.9043 37.2793 25.0723 37.2852C24.2461 37.2852 23.4492 37.1797 22.6816 36.9688C21.9141 36.7578 21.1992 36.4531 20.5371 36.0547C19.875 35.6562 19.2686 35.1875 18.7178 34.6484C18.167 34.1094 17.6953 33.5029 17.3027 32.8291C16.9102 32.1553 16.6084 31.4375 16.3975 30.6758C16.1865 29.9141 16.0781 29.1172 16.0723 28.2852C16.0723 27.459 16.1777 26.6621 16.3887 25.8945C16.5996 25.127 16.9043 24.4121 17.3027 23.75C17.7012 23.0879 18.1699 22.4814 18.709 21.9307C19.248 21.3799 19.8545 20.9082 20.5283 20.5156C21.2021 20.123 21.9199 19.8213 22.6816 19.6104C23.4434 19.3994 24.2402 19.291 25.0723 19.2852ZM30.3721 25.3057L29.1768 24.1104L23.3848 29.9023L20.9678 27.4854L19.7725 28.6807L23.3848 32.293L30.3721 25.3057Z" fill="#14AE5C"/>
</svg>
