<svg width="36" height="36" viewBox="0 0 36 36" fill="none" xmlns="http://www.w3.org/2000/svg">
<path d="M35.25 25.5L27.75 33L22.5 27.75L24.75 25.5L27.75 28.5L33 23.25L35.25 25.5ZM18 13.5C19.1935 13.5 20.3381 13.9741 21.182 14.818C22.0259 15.6619 22.5 16.8065 22.5 18C22.5 19.1935 22.0259 20.3381 21.182 21.182C20.3381 22.0259 19.1935 22.5 18 22.5C16.8065 22.5 15.6619 22.0259 14.818 21.182C13.9741 20.3381 13.5 19.1935 13.5 18C13.5 16.8065 13.9741 15.6619 14.818 14.818C15.6619 13.9741 16.8065 13.5 18 13.5ZM18 6.75C25.5 6.75 31.905 11.415 34.5 18C34.125 18.975 33.66 19.89 33.12 20.775C32.242 20.2449 31.2771 19.8742 30.27 19.68L31.23 18C30.0176 15.5245 28.135 13.4389 25.7963 11.9801C23.4575 10.5214 20.7564 9.74802 18 9.74802C15.2436 9.74802 12.5425 10.5214 10.2037 11.9801C7.86496 13.4389 5.98238 15.5245 4.77 18C5.98252 20.4752 7.86518 22.5606 10.204 24.019C12.5427 25.4774 15.2438 26.2504 18 26.25L19.815 26.145C19.605 26.895 19.5 27.69 19.5 28.5V29.19L18 29.25C10.5 29.25 4.095 24.585 1.5 18C4.095 11.415 10.5 6.75 18 6.75Z" fill="#0D99FF"/>
</svg>
