<svg width="114" height="114" viewBox="0 0 114 114" fill="none" xmlns="http://www.w3.org/2000/svg">
<path d="M114 57C114 25.52 88.48 0 57 0C25.52 0 0 25.52 0 57C0 85.4501 20.8442 109.032 48.0938 113.308V73.4766H33.6211V57H48.0938V44.4422C48.0938 30.1566 56.6037 22.2656 69.6237 22.2656C75.8599 22.2656 82.3828 23.3789 82.3828 23.3789V37.4063H75.1955C68.1146 37.4063 65.9062 41.8002 65.9062 46.308V57H81.7148L79.1877 73.4766H65.9062V113.308C93.1558 109.032 114 85.4506 114 57Z" fill="#1877F2"/>
<path d="M79.1877 73.4766L81.7148 57H65.9062V46.308C65.9062 41.7997 68.1146 37.4062 75.1955 37.4062H82.3828V23.3789C82.3828 23.3789 75.8599 22.2656 69.6233 22.2656C56.6037 22.2656 48.0938 30.1566 48.0938 44.4422V57H33.6211V73.4766H48.0938V113.308C51.04 113.769 54.0178 114.001 57 114C59.9822 114.001 62.96 113.769 65.9062 113.308V73.4766H79.1877Z" fill="white"/>
</svg>
