<svg width="114" height="114" viewBox="0 0 114 114" fill="none" xmlns="http://www.w3.org/2000/svg">
<mask id="mask0_1302_1210" style="mask-type:alpha" maskUnits="userSpaceOnUse" x="0" y="0" width="114" height="114">
<circle cx="57" cy="57" r="57" fill="#D9D9D9"/>
</mask>
<g mask="url(#mask0_1302_1210)">
<path d="M134.556 18.7808C133.627 15.3441 131.812 12.2109 129.295 9.69331C126.777 7.17571 123.644 5.36152 120.208 4.4314C107.626 1 57 -0.5 57 -0.5C57 -0.5 6.34829 1.10387 -6.23351 4.53527C-9.67029 5.46544 -12.8034 7.27973 -15.3209 9.79745C-17.8384 12.3152 -19.6524 15.4485 -20.5823 18.8853C-24.388 41.2407 -25.8643 75.3052 -20.4778 96.7663C-19.5478 100.203 -17.7338 103.336 -15.2163 105.854C-12.6988 108.371 -9.56571 110.186 -6.12901 111.116C6.45279 114.547 57.0916 114.547 57.0916 114.547C57.0916 114.547 107.73 114.547 120.311 111.116C123.748 110.186 126.881 108.372 129.399 105.854C131.916 103.336 133.73 100.203 134.66 96.7663C138.674 74.3793 139.911 40.3357 134.556 18.7808Z" fill="#FF0000"/>
<path d="M40.8711 82.1042L82.8788 57.7728L40.8711 33.4414V82.1042Z" fill="white"/>
</g>
</svg>
