<svg width="114" height="114" viewBox="0 0 114 114" fill="none" xmlns="http://www.w3.org/2000/svg">
<mask id="mask0_1302_1206" style="mask-type:alpha" maskUnits="userSpaceOnUse" x="0" y="0" width="114" height="114">
<circle cx="57" cy="57" r="57" fill="#D9D9D9"/>
</mask>
<g mask="url(#mask0_1302_1206)">
<path d="M-9.07381 57.1737C-9.07702 68.7684 -6.04599 80.0897 -0.282549 90.0685L-9.625 124.163L25.2832 115.014C34.9383 120.268 45.7562 123.021 56.7493 123.022H56.7782C93.0686 123.022 122.61 93.5052 122.625 57.2256C122.632 39.6456 115.789 23.1144 103.356 10.6773C90.9243 -1.75872 74.3912 -8.61112 56.7755 -8.61914C20.4808 -8.61914 -9.05829 20.8957 -9.07327 57.1737" fill="url(#paint0_linear_1302_1206)"/>
<path d="M-11.4235 57.1527C-11.4272 69.1646 -8.28758 80.8909 -2.31865 91.227L-11.9961 126.544L24.1638 117.067C34.127 122.497 45.3445 125.36 56.7591 125.364H56.7885C94.3809 125.364 124.983 94.7856 124.999 57.2073C125.006 38.9956 117.916 21.8702 105.039 8.98754C92.1595 -3.89354 75.0351 -10.9925 56.7885 -11C19.1896 -11 -11.4085 19.574 -11.4235 57.1527ZM10.111 89.4469L8.76086 87.3047C3.08518 78.2844 0.089476 67.8606 0.0937572 57.157C0.10553 25.9225 25.5375 0.510698 56.8099 0.510698C71.9543 0.517117 86.1869 6.41795 96.8918 17.1242C107.596 27.8315 113.486 42.0647 113.483 57.203C113.469 88.4376 88.0363 113.853 56.7885 113.853H56.766C46.5914 113.847 36.6127 111.116 27.9103 105.955L25.8393 104.727L4.38129 110.351L10.111 89.4469Z" fill="url(#paint1_linear_1302_1206)"/>
<path d="M39.7403 28.6608C38.4635 25.8243 37.1197 25.7671 35.9055 25.7174C34.9112 25.6746 33.7746 25.6778 32.639 25.6778C31.5024 25.6778 29.6556 26.1052 28.0946 27.8088C26.532 29.514 22.1289 33.6347 22.1289 42.0158C22.1289 50.3969 28.2364 58.4972 29.0878 59.6349C29.9403 60.7704 40.8786 78.52 58.2021 85.3483C72.5994 91.0229 75.5293 89.8943 78.654 89.6098C81.7792 89.3263 88.7381 85.4901 90.1579 81.5122C91.5787 77.5348 91.5787 74.1254 91.1527 73.413C90.7267 72.7032 89.5901 72.2769 87.8857 71.4253C86.1812 70.5738 77.8015 66.452 76.2394 65.8834C74.6768 65.3154 73.5407 65.0319 72.4041 66.7376C71.2675 68.4407 68.0037 72.2769 67.0088 73.413C66.0151 74.5517 65.0203 74.6935 63.3164 73.8414C61.6109 72.9866 56.122 71.19 49.6099 65.387C44.5432 60.8715 41.1226 55.2954 40.1283 53.5896C39.134 51.8866 40.0218 50.9634 40.8764 50.1145C41.6422 49.3512 42.5814 48.1253 43.4344 47.1309C44.2842 46.136 44.5678 45.4262 45.1361 44.2901C45.705 43.153 45.4203 42.1581 44.9948 41.306C44.5678 40.454 41.2558 32.029 39.7403 28.6608Z" fill="white"/>
</g>
<defs>
<linearGradient id="paint0_linear_1302_1206" x1="6602.9" y1="13269.6" x2="6602.9" y2="-8.61914" gradientUnits="userSpaceOnUse">
<stop stop-color="#1FAF38"/>
<stop offset="1" stop-color="#60D669"/>
</linearGradient>
<linearGradient id="paint1_linear_1302_1206" x1="6837.78" y1="13743.4" x2="6837.78" y2="-11" gradientUnits="userSpaceOnUse">
<stop stop-color="#F9F9F9"/>
<stop offset="1" stop-color="white"/>
</linearGradient>
</defs>
</svg>
