<svg width="130" height="130" viewBox="0 0 130 130" fill="none" xmlns="http://www.w3.org/2000/svg">
<path d="M36.4159 7.19336C39.7344 7.19336 53.0084 37.0599 53.0084 40.3784C53.0084 47.0155 43.0529 53.6525 39.7344 60.2895C36.4159 66.9265 43.0529 73.5635 49.6899 80.2005C52.2783 82.789 62.9639 93.4746 69.6009 90.1561C76.238 86.8376 82.875 76.882 89.512 76.882C92.8305 76.882 122.697 90.1561 122.697 93.4746C122.697 106.749 112.742 116.704 102.786 120.023C92.8305 123.341 86.1935 123.341 72.9194 120.023C59.6454 116.704 49.6899 113.386 33.0973 96.7931C16.5048 80.2005 13.1863 70.245 9.86779 56.971C6.54928 43.6969 6.54928 37.0599 9.86779 27.1044C13.1863 17.1489 23.1418 7.19336 36.4159 7.19336Z" stroke="#000E3B" stroke-width="13" stroke-linecap="round" stroke-linejoin="round"/>
</svg>
