<svg width="710" height="568" viewBox="0 0 710 568" fill="none" xmlns="http://www.w3.org/2000/svg">
<path d="M639 0H71C31.95 0 0.355 31.95 0.355 71L0 497C0 536.05 31.95 568 71 568H639C678.05 568 710 536.05 710 497V71C710 31.95 678.05 0 639 0ZM639 142L355 319.5L71 142V71L355 248.5L639 71V142Z" fill="#000E3B"/>
<path d="M82.0457 511V472.311H86.5545V511H82.0457ZM84.3379 465.661C83.4143 465.661 82.6251 465.35 81.9702 464.729C81.3153 464.091 80.9878 463.327 80.9878 462.437C80.9878 461.547 81.3153 460.791 81.9702 460.17C82.6251 459.532 83.4143 459.212 84.3379 459.212C85.2615 459.212 86.0507 459.532 86.7056 460.17C87.3605 460.791 87.688 461.547 87.688 462.437C87.688 463.327 87.3605 464.091 86.7056 464.729C86.0507 465.35 85.2615 465.661 84.3379 465.661ZM102.896 486.819V511H98.412V472.311H102.77V478.381H103.173C104.079 476.399 105.49 474.813 107.404 473.62C109.335 472.411 111.72 471.807 114.558 471.807C117.161 471.807 119.444 472.352 121.409 473.444C123.391 474.519 124.927 476.106 126.019 478.205C127.127 480.304 127.681 482.881 127.681 485.937V511H123.197V486.215C123.197 483.041 122.307 480.53 120.527 478.683C118.764 476.836 116.397 475.912 113.424 475.912C111.392 475.912 109.587 476.349 108.009 477.222C106.43 478.095 105.179 479.355 104.256 481.001C103.349 482.629 102.896 484.569 102.896 486.819ZM155.407 472.311V476.215H136.39V472.311H155.407ZM142.334 511V466.643C142.334 464.561 142.813 462.806 143.77 461.379C144.744 459.951 146.012 458.868 147.574 458.129C149.135 457.391 150.789 457.021 152.536 457.021C153.711 457.021 154.685 457.122 155.458 457.323C156.247 457.508 156.868 457.693 157.322 457.878L156.012 461.807C155.676 461.706 155.264 461.589 154.777 461.454C154.29 461.32 153.678 461.253 152.939 461.253C150.991 461.253 149.488 461.799 148.43 462.89C147.372 463.982 146.843 465.543 146.843 467.575L146.818 511H142.334ZM177.8 511.806C174.458 511.806 171.503 510.958 168.933 509.262C166.381 507.566 164.383 505.223 162.939 502.234C161.494 499.229 160.772 495.761 160.772 491.832C160.772 487.869 161.494 484.384 162.939 481.378C164.383 478.356 166.381 476.005 168.933 474.326C171.503 472.63 174.458 471.782 177.8 471.782C181.141 471.782 184.088 472.63 186.641 474.326C189.193 476.022 191.192 478.373 192.636 481.378C194.097 484.384 194.827 487.869 194.827 491.832C194.827 495.761 194.105 499.229 192.661 502.234C191.217 505.223 189.21 507.566 186.641 509.262C184.088 510.958 181.141 511.806 177.8 511.806ZM177.8 507.7C180.486 507.7 182.762 506.978 184.626 505.534C186.49 504.09 187.9 502.167 188.857 499.766C189.831 497.365 190.318 494.72 190.318 491.832C190.318 488.943 189.831 486.29 188.857 483.872C187.9 481.454 186.49 479.514 184.626 478.053C182.762 476.593 180.486 475.862 177.8 475.862C175.13 475.862 172.854 476.593 170.974 478.053C169.11 479.514 167.691 481.454 166.717 483.872C165.76 486.29 165.281 488.943 165.281 491.832C165.281 494.72 165.76 497.365 166.717 499.766C167.691 502.167 169.11 504.09 170.974 505.534C172.838 506.978 175.113 507.7 177.8 507.7ZM233.284 524.627C228.481 524.627 224.165 523.888 220.337 522.41C216.508 520.933 213.242 518.8 210.538 516.013C207.852 513.242 205.786 509.9 204.342 505.987C202.915 502.075 202.201 497.7 202.201 492.864C202.201 488.129 202.923 483.83 204.367 479.968C205.828 476.106 207.902 472.789 210.589 470.018C213.292 467.248 216.517 465.115 220.261 463.62C224.023 462.109 228.204 461.354 232.805 461.354C237.305 461.354 241.336 462.143 244.896 463.721C248.455 465.283 251.487 467.416 253.989 470.119C256.491 472.823 258.397 475.904 259.706 479.363C261.033 482.806 261.696 486.408 261.696 490.169C261.696 492.554 261.512 494.905 261.142 497.222C260.789 499.539 260.177 501.638 259.303 503.519C258.43 505.4 257.221 506.903 255.676 508.028C254.131 509.136 252.175 509.69 249.807 509.69C248.565 509.69 247.339 509.489 246.13 509.086C244.938 508.666 243.913 507.986 243.057 507.045C242.217 506.088 241.73 504.812 241.596 503.217H241.344C240.807 504.426 240.051 505.534 239.077 506.542C238.103 507.532 236.902 508.322 235.475 508.909C234.064 509.497 232.427 509.766 230.563 509.715C228.447 509.665 226.542 509.195 224.846 508.305C223.166 507.415 221.731 506.197 220.538 504.653C219.363 503.108 218.464 501.319 217.843 499.287C217.222 497.239 216.911 495.031 216.911 492.663C216.911 490.379 217.255 488.272 217.944 486.34C218.649 484.409 219.615 482.722 220.841 481.278C222.083 479.833 223.536 478.683 225.198 477.827C226.861 476.97 228.649 476.475 230.563 476.341C232.276 476.223 233.855 476.391 235.299 476.844C236.743 477.281 237.969 477.919 238.976 478.759C239.984 479.598 240.706 480.547 241.142 481.605H241.394V477.046H245.5V500.396C245.5 502.159 245.844 503.536 246.533 504.527C247.238 505.501 248.346 505.987 249.858 505.987C251.688 505.987 253.174 505.391 254.316 504.199C255.475 502.99 256.323 501.21 256.86 498.859C257.397 496.491 257.666 493.578 257.666 490.119C257.666 487.499 257.297 484.964 256.558 482.512C255.836 480.043 254.778 477.76 253.384 475.661C251.99 473.545 250.277 471.698 248.246 470.119C246.214 468.524 243.888 467.281 241.268 466.391C238.666 465.501 235.777 465.056 232.604 465.056C228.674 465.056 225.106 465.72 221.898 467.046C218.691 468.373 215.929 470.27 213.611 472.739C211.311 475.207 209.539 478.154 208.297 481.58C207.054 484.989 206.433 488.792 206.433 492.99C206.433 497.239 207.054 501.076 208.297 504.501C209.539 507.927 211.328 510.857 213.662 513.292C216.013 515.727 218.851 517.599 222.176 518.909C225.5 520.219 229.245 520.874 233.41 520.874C235.257 520.874 237.07 520.689 238.85 520.32C240.647 519.967 242.276 519.53 243.737 519.01C245.215 518.489 246.407 517.977 247.314 517.473L248.598 521C247.356 521.672 245.878 522.284 244.165 522.839C242.469 523.393 240.672 523.829 238.775 524.148C236.894 524.467 235.064 524.627 233.284 524.627ZM231.092 505.761C233.376 505.761 235.299 505.232 236.86 504.174C238.422 503.116 239.598 501.596 240.387 499.615C241.193 497.633 241.596 495.249 241.596 492.461C241.596 489.657 241.168 487.348 240.311 485.534C239.472 483.721 238.271 482.377 236.709 481.504C235.164 480.614 233.334 480.169 231.218 480.169C229.17 480.169 227.373 480.732 225.828 481.857C224.3 482.965 223.099 484.451 222.226 486.315C221.369 488.179 220.941 490.228 220.941 492.461C220.941 494.829 221.319 497.02 222.075 499.035C222.847 501.051 223.981 502.679 225.475 503.922C226.987 505.148 228.859 505.761 231.092 505.761ZM281.904 511.882C279.57 511.882 277.437 511.428 275.506 510.521C273.575 509.598 272.038 508.271 270.896 506.542C269.754 504.795 269.184 502.679 269.184 500.194C269.184 498.28 269.545 496.668 270.267 495.358C270.989 494.048 272.013 492.973 273.34 492.134C274.666 491.294 276.236 490.631 278.05 490.144C279.863 489.657 281.862 489.279 284.045 489.01C286.211 488.742 288.041 488.507 289.536 488.305C291.047 488.104 292.197 487.785 292.987 487.348C293.776 486.911 294.17 486.206 294.17 485.232V484.325C294.17 481.689 293.381 479.615 291.803 478.104C290.241 476.576 287.991 475.812 285.052 475.812C282.265 475.812 279.989 476.425 278.226 477.65C276.48 478.876 275.254 480.32 274.549 481.983L270.292 480.446C271.165 478.331 272.374 476.643 273.919 475.383C275.464 474.107 277.193 473.192 279.108 472.638C281.022 472.067 282.962 471.782 284.926 471.782C286.404 471.782 287.941 471.975 289.536 472.361C291.148 472.747 292.642 473.419 294.019 474.376C295.396 475.316 296.513 476.635 297.369 478.331C298.226 480.01 298.654 482.142 298.654 484.728V511H294.17V504.879H293.893C293.356 506.021 292.558 507.129 291.5 508.204C290.443 509.279 289.116 510.16 287.521 510.849C285.925 511.537 284.053 511.882 281.904 511.882ZM282.508 507.776C284.893 507.776 286.958 507.247 288.705 506.189C290.451 505.131 291.794 503.729 292.735 501.983C293.692 500.219 294.17 498.28 294.17 496.164V490.572C293.835 490.891 293.272 491.177 292.483 491.429C291.71 491.68 290.812 491.907 289.788 492.109C288.78 492.293 287.773 492.453 286.765 492.587C285.758 492.722 284.851 492.839 284.045 492.94C281.862 493.209 279.998 493.628 278.453 494.199C276.908 494.77 275.724 495.559 274.901 496.567C274.078 497.558 273.667 498.834 273.667 500.396C273.667 502.747 274.507 504.569 276.186 505.862C277.865 507.138 279.973 507.776 282.508 507.776ZM310.581 525.509V472.311H314.938V479.691H315.467C316.005 478.532 316.744 477.348 317.684 476.139C318.624 474.913 319.867 473.881 321.412 473.041C322.973 472.201 324.938 471.782 327.306 471.782C330.496 471.782 333.284 472.621 335.668 474.3C338.07 475.963 339.934 478.297 341.26 481.303C342.604 484.292 343.275 487.776 343.275 491.756C343.275 495.753 342.604 499.254 341.26 502.26C339.934 505.265 338.07 507.608 335.668 509.287C333.284 510.966 330.513 511.806 327.356 511.806C325.022 511.806 323.066 511.386 321.487 510.547C319.926 509.707 318.658 508.674 317.684 507.448C316.727 506.206 315.988 504.997 315.467 503.821H315.064V525.509H310.581ZM315.014 491.68C315.014 494.804 315.476 497.575 316.399 499.993C317.34 502.394 318.683 504.283 320.429 505.66C322.193 507.02 324.325 507.7 326.827 507.7C329.397 507.7 331.563 506.995 333.326 505.584C335.106 504.157 336.458 502.234 337.381 499.816C338.322 497.398 338.792 494.686 338.792 491.68C338.792 488.708 338.33 486.03 337.406 483.645C336.5 481.261 335.156 479.372 333.376 477.978C331.596 476.567 329.413 475.862 326.827 475.862C324.308 475.862 322.167 476.542 320.404 477.902C318.641 479.246 317.298 481.11 316.374 483.494C315.467 485.862 315.014 488.591 315.014 491.68ZM357.192 496.391L357.142 490.522H358.149L376.285 472.311H381.952L364.043 490.245L363.64 490.32L357.192 496.391ZM353.111 511V459.414H357.595V511H353.111ZM377.217 511L361.499 491.126L364.723 488.028L382.96 511H377.217ZM408.003 486.769V491H386.543V486.769H408.003ZM434.905 511.806C431.294 511.806 428.171 510.966 425.535 509.287C422.898 507.591 420.858 505.249 419.414 502.26C417.987 499.254 417.273 495.795 417.273 491.882C417.273 487.986 417.987 484.527 419.414 481.504C420.858 478.465 422.848 476.089 425.384 474.376C427.936 472.646 430.883 471.782 434.225 471.782C436.324 471.782 438.347 472.168 440.295 472.94C442.243 473.696 443.989 474.863 445.534 476.441C447.096 478.003 448.33 479.976 449.237 482.361C450.144 484.728 450.597 487.533 450.597 490.774V492.99H420.371V489.036H446.013C446.013 486.55 445.509 484.317 444.502 482.336C443.511 480.337 442.125 478.759 440.345 477.6C438.582 476.441 436.542 475.862 434.225 475.862C431.773 475.862 429.615 476.517 427.751 477.827C425.887 479.137 424.426 480.866 423.368 483.016C422.327 485.165 421.798 487.516 421.782 490.068V492.436C421.782 495.509 422.311 498.196 423.368 500.496C424.443 502.78 425.963 504.552 427.928 505.811C429.892 507.071 432.218 507.7 434.905 507.7C436.735 507.7 438.339 507.415 439.716 506.844C441.11 506.273 442.277 505.509 443.217 504.552C444.174 503.578 444.896 502.511 445.383 501.353L449.64 502.738C449.052 504.367 448.087 505.87 446.743 507.247C445.417 508.624 443.754 509.732 441.756 510.572C439.775 511.395 437.491 511.806 434.905 511.806ZM474.407 511.806C471.233 511.806 468.454 510.966 466.069 509.287C463.685 507.608 461.821 505.265 460.477 502.26C459.151 499.254 458.487 495.753 458.487 491.756C458.487 487.776 459.151 484.292 460.477 481.303C461.821 478.297 463.693 475.963 466.094 474.3C468.496 472.621 471.292 471.782 474.482 471.782C476.833 471.782 478.789 472.201 480.351 473.041C481.913 473.864 483.164 474.888 484.104 476.114C485.045 477.34 485.775 478.532 486.296 479.691H486.699V459.414H491.207V511H486.825V503.821H486.296C485.775 504.997 485.036 506.206 484.079 507.448C483.122 508.674 481.854 509.707 480.276 510.547C478.714 511.386 476.758 511.806 474.407 511.806ZM474.936 507.7C477.438 507.7 479.57 507.02 481.333 505.66C483.097 504.283 484.44 502.394 485.364 499.993C486.304 497.575 486.774 494.804 486.774 491.68C486.774 488.591 486.312 485.862 485.389 483.494C484.465 481.11 483.122 479.246 481.359 477.902C479.595 476.542 477.454 475.862 474.936 475.862C472.35 475.862 470.167 476.567 468.387 477.978C466.623 479.372 465.28 481.261 464.356 483.645C463.45 486.03 462.996 488.708 462.996 491.68C462.996 494.686 463.458 497.398 464.382 499.816C465.305 502.234 466.649 504.157 468.412 505.584C470.192 506.995 472.366 507.7 474.936 507.7ZM528.562 496.214V472.311H533.045V511H528.562V504.577H528.209C527.302 506.558 525.867 508.212 523.902 509.539C521.937 510.849 519.536 511.504 516.698 511.504C514.23 511.504 512.038 510.966 510.124 509.892C508.21 508.8 506.707 507.205 505.615 505.106C504.524 503.007 503.978 500.429 503.978 497.373V472.311H508.461V497.096C508.461 500.119 509.351 502.553 511.131 504.401C512.911 506.231 515.195 507.146 517.983 507.146C519.729 507.146 521.408 506.726 523.02 505.887C524.632 505.047 525.959 503.821 527 502.209C528.041 500.58 528.562 498.582 528.562 496.214ZM548.492 511.378C547.501 511.378 546.645 511.025 545.923 510.32C545.218 509.598 544.865 508.741 544.865 507.751C544.865 506.743 545.218 505.887 545.923 505.181C546.645 504.476 547.501 504.124 548.492 504.124C549.5 504.124 550.356 504.476 551.061 505.181C551.767 505.887 552.119 506.743 552.119 507.751C552.119 508.406 551.951 509.01 551.616 509.564C551.296 510.118 550.86 510.563 550.306 510.899C549.768 511.218 549.164 511.378 548.492 511.378ZM568.045 496.391L567.994 490.522H569.002L587.138 472.311H592.805L574.896 490.245L574.493 490.32L568.045 496.391ZM563.964 511V459.414H568.448V511H563.964ZM588.07 511L572.352 491.126L575.576 488.028L593.813 511H588.07ZM600.022 511V507.448L622.389 476.87V476.542H600.979V472.311H628.157V476.013L606.193 506.441V506.768H628.963V511H600.022Z" fill="white"/>
<path d="M196.311 122V30.2249H258.151V46.2228H215.714V68.0911H254.97V84.089H215.714V106.002H258.331V122H196.311ZM273.219 122V53.1687H291.413V65.3128H292.22C293.654 61.2797 296.044 58.098 299.39 55.7678C302.736 53.4376 306.739 52.2724 311.399 52.2724C316.12 52.2724 320.138 53.4525 323.454 55.8126C326.77 58.1428 328.981 61.3095 330.086 65.3128H330.803C332.207 61.3693 334.746 58.2175 338.421 55.8574C342.125 53.4674 346.502 52.2724 351.551 52.2724C357.974 52.2724 363.187 54.3189 367.19 58.4117C371.223 62.4747 373.24 68.2405 373.24 75.7091V122H354.195V79.4734C354.195 75.6494 353.179 72.7814 351.148 70.8694C349.116 68.9575 346.577 68.0015 343.53 68.0015C340.064 68.0015 337.36 69.1068 335.419 71.3176C333.477 73.4984 332.506 76.3813 332.506 79.9663V122H313.998V79.0701C313.998 75.6942 313.028 73.0055 311.086 71.0039C309.174 69.0023 306.649 68.0015 303.512 68.0015C301.391 68.0015 299.479 68.5392 297.776 69.6147C296.103 70.6603 294.774 72.1391 293.788 74.0511C292.802 75.9332 292.309 78.1439 292.309 80.6833V122H273.219ZM407.947 123.3C403.555 123.3 399.642 122.538 396.206 121.014C392.771 119.461 390.052 117.175 388.05 114.158C386.079 111.111 385.093 107.317 385.093 102.776C385.093 98.9517 385.795 95.7401 387.199 93.141C388.603 90.5419 390.515 88.4507 392.935 86.8673C395.355 85.284 398.103 84.089 401.18 83.2824C404.287 82.4758 407.544 81.9081 410.949 81.5795C414.953 81.1613 418.179 80.7729 420.629 80.4144C423.078 80.026 424.856 79.4584 425.961 78.7116C427.067 77.9647 427.619 76.8593 427.619 75.3955V75.1266C427.619 72.2885 426.723 70.0927 424.931 68.5392C423.168 66.9857 420.659 66.209 417.402 66.209C413.967 66.209 411.233 66.9708 409.202 68.4944C407.17 69.9881 405.826 71.8702 405.169 74.1407L387.513 72.7067C388.409 68.5243 390.171 64.9094 392.8 61.8622C395.429 58.7851 398.82 56.425 402.973 54.7819C407.155 53.1089 411.995 52.2724 417.492 52.2724C421.316 52.2724 424.975 52.7206 428.471 53.6168C431.996 54.513 435.118 55.9022 437.837 57.7843C440.585 59.6664 442.751 62.0863 444.334 65.0439C445.918 67.9716 446.709 71.4819 446.709 75.5747V122H428.605V112.455H428.068C426.962 114.606 425.483 116.503 423.631 118.146C421.779 119.759 419.553 121.029 416.954 121.955C414.355 122.851 411.353 123.3 407.947 123.3ZM413.414 110.125C416.222 110.125 418.702 109.572 420.853 108.467C423.004 107.332 424.692 105.808 425.917 103.896C427.141 101.984 427.754 99.818 427.754 97.3982V90.0938C427.156 90.4822 426.335 90.8407 425.289 91.1693C424.273 91.4681 423.123 91.7519 421.839 92.0207C420.554 92.2597 419.269 92.4838 417.985 92.6929C416.7 92.8722 415.535 93.0365 414.489 93.1858C412.249 93.5145 410.292 94.0373 408.619 94.7543C406.946 95.4713 405.647 96.4422 404.72 97.6671C403.794 98.862 403.331 100.356 403.331 102.148C403.331 104.747 404.272 106.734 406.154 108.108C408.066 109.453 410.486 110.125 413.414 110.125ZM461.52 122V53.1687H480.61V122H461.52ZM471.11 44.2959C468.271 44.2959 465.837 43.3548 463.805 41.4727C461.804 39.5608 460.803 37.2753 460.803 34.6165C460.803 31.9875 461.804 29.732 463.805 27.8499C465.837 25.9379 468.271 24.9819 471.11 24.9819C473.948 24.9819 476.367 25.9379 478.369 27.8499C480.401 29.732 481.416 31.9875 481.416 34.6165C481.416 37.2753 480.401 39.5608 478.369 41.4727C476.367 43.3548 473.948 44.2959 471.11 44.2959ZM514.992 30.2249V122H495.902V30.2249H514.992Z" fill="white"/>
</svg>
