<svg width="132" height="190" viewBox="0 0 132 190" fill="none" xmlns="http://www.w3.org/2000/svg">
<path d="M65.9987 90.2923C59.7551 90.2923 53.7671 87.812 49.3522 83.3971C44.9373 78.9822 42.457 72.9943 42.457 66.7506C42.457 60.507 44.9373 54.5191 49.3522 50.1042C53.7671 45.6893 59.7551 43.209 65.9987 43.209C72.2423 43.209 78.2302 45.6893 82.6452 50.1042C87.0601 54.5191 89.5404 60.507 89.5404 66.7506C89.5404 69.8422 88.9314 72.9034 87.7484 75.7597C86.5653 78.6159 84.8312 81.2111 82.6452 83.3971C80.4591 85.5832 77.8639 87.3172 75.0077 88.5003C72.1515 89.6834 69.0902 90.2923 65.9987 90.2923ZM65.9987 0.833984C48.5165 0.833984 31.7503 7.77875 19.3886 20.1405C7.0268 32.5023 0.0820313 49.2685 0.0820312 66.7506C0.0820313 116.188 65.9987 189.167 65.9987 189.167C65.9987 189.167 131.915 116.188 131.915 66.7506C131.915 49.2685 124.971 32.5023 112.609 20.1405C100.247 7.77875 83.4809 0.833984 65.9987 0.833984Z" fill="#000E3B"/>
</svg>
