<svg width="114" height="114" viewBox="0 0 114 114" fill="none" xmlns="http://www.w3.org/2000/svg">
<path d="M57 0C41.8861 0 27.3778 6.00905 16.6992 16.6948C6.00969 27.3848 0.00305884 41.8824 0 57C0 72.1112 6.01172 86.6195 16.6992 97.3052C27.3778 107.991 41.8861 114 57 114C72.1139 114 86.6222 107.991 97.3008 97.3052C107.988 86.6195 114 72.1112 114 57C114 41.8888 107.988 27.3805 97.3008 16.6948C86.6222 6.00905 72.1139 0 57 0Z" fill="url(#paint0_linear_1302_1198)"/>
<path d="M25.8015 56.3972C42.4206 49.1582 53.4999 44.3857 59.0396 42.0795C74.8749 35.4951 78.1613 34.3516 80.3077 34.3128C80.7798 34.3053 81.8307 34.4219 82.5165 34.9764C83.0865 35.4439 83.2468 36.0763 83.327 36.5203C83.3982 36.9638 83.4962 37.9746 83.416 38.7637C82.561 47.7769 78.8471 69.6488 76.959 79.7441C76.1663 84.0155 74.5899 85.4476 73.067 85.5875C69.7538 85.892 67.2423 83.4001 64.036 81.2991C59.0218 78.01 56.1896 75.9634 51.3179 72.7544C45.6892 69.0459 49.3407 67.0072 52.547 63.6763C53.3842 62.8044 67.9726 49.5385 68.2487 48.3353C68.2843 48.1848 68.3199 47.6237 67.9815 47.328C67.652 47.0314 67.1621 47.1329 66.8059 47.2131C66.2982 47.3271 58.2915 52.6245 42.759 63.1045C40.4879 64.6667 38.4306 65.4282 36.5781 65.3881C34.5474 65.3444 30.6287 64.2374 27.7163 63.2915C24.1538 62.1311 21.3128 61.5174 21.5621 59.5465C21.6868 58.5205 23.1029 57.4704 25.8015 56.3972Z" fill="white"/>
<defs>
<linearGradient id="paint0_linear_1302_1198" x1="5700" y1="0" x2="5700" y2="11400" gradientUnits="userSpaceOnUse">
<stop stop-color="#2AABEE"/>
<stop offset="1" stop-color="#229ED9"/>
</linearGradient>
</defs>
</svg>
