<svg width="45" height="42" viewBox="0 0 45 42" fill="none" xmlns="http://www.w3.org/2000/svg">
<path d="M37.5 18H34.5V21H37.5C38.6931 21.0012 39.837 21.4757 40.6807 22.3193C41.5243 23.163 41.9988 24.3069 42 25.5V31.5H45V25.5C44.9976 23.5116 44.2067 21.6053 42.8007 20.1993C41.3947 18.7933 39.4884 18.0024 37.5 18ZM34.5 3C35.39 3 36.26 3.26392 37.0001 3.75839C37.7401 4.25285 38.3169 4.95566 38.6575 5.77792C38.9981 6.60019 39.0872 7.50499 38.9135 8.37791C38.7399 9.25082 38.3113 10.0526 37.682 10.682C37.0526 11.3113 36.2508 11.7399 35.3779 11.9135C34.505 12.0872 33.6002 11.9981 32.7779 11.6575C31.9557 11.3169 31.2529 10.7401 30.7584 10.0001C30.2639 9.26005 30 8.39002 30 7.5C30 6.30653 30.4741 5.16193 31.318 4.31802C32.1619 3.47411 33.3065 3 34.5 3ZM34.5 0C33.0166 0 31.5666 0.439867 30.3332 1.26398C29.0999 2.08809 28.1386 3.25943 27.5709 4.62987C27.0032 6.00032 26.8547 7.50832 27.1441 8.96318C27.4335 10.418 28.1478 11.7544 29.1967 12.8033C30.2456 13.8522 31.582 14.5665 33.0368 14.8559C34.4917 15.1453 35.9997 14.9968 37.3701 14.4291C38.7406 13.8614 39.9119 12.9001 40.736 11.6668C41.5601 10.4334 42 8.98336 42 7.5C42 5.51088 41.2098 3.60322 39.8033 2.1967C38.3968 0.790176 36.4891 0 34.5 0ZM33 42H30V39C29.9988 37.8069 29.5243 36.663 28.6807 35.8193C27.837 34.9757 26.6931 34.5012 25.5 34.5H19.5C18.3069 34.5012 17.163 34.9757 16.3193 35.8193C15.4757 36.663 15.0012 37.8069 15 39V42H12V39C12.0024 37.0116 12.7933 35.1053 14.1993 33.6993C15.6053 32.2933 17.5116 31.5024 19.5 31.5H25.5C27.4884 31.5024 29.3947 32.2933 30.8007 33.6993C32.2067 35.1053 32.9976 37.0116 33 39V42ZM22.5 16.5C23.39 16.5 24.26 16.7639 25.0001 17.2584C25.7401 17.7529 26.3169 18.4557 26.6575 19.2779C26.9981 20.1002 27.0872 21.005 26.9135 21.8779C26.7399 22.7508 26.3113 23.5526 25.682 24.182C25.0526 24.8113 24.2508 25.2399 23.3779 25.4135C22.505 25.5872 21.6002 25.4981 20.7779 25.1575C19.9557 24.8169 19.2529 24.2401 18.7584 23.5001C18.2639 22.76 18 21.89 18 21C18 19.8065 18.4741 18.6619 19.318 17.818C20.1619 16.9741 21.3065 16.5 22.5 16.5ZM22.5 13.5C21.0166 13.5 19.5666 13.9399 18.3332 14.764C17.0999 15.5881 16.1386 16.7594 15.5709 18.1299C15.0032 19.5003 14.8547 21.0083 15.1441 22.4632C15.4335 23.918 16.1478 25.2544 17.1967 26.3033C18.2456 27.3522 19.582 28.0665 21.0368 28.3559C22.4917 28.6453 23.9997 28.4968 25.3701 27.9291C26.7406 27.3614 27.9119 26.4001 28.736 25.1668C29.5601 23.9334 30 22.4834 30 21C30 19.0109 29.2098 17.1032 27.8033 15.6967C26.3968 14.2902 24.4891 13.5 22.5 13.5ZM10.5 18H7.5C5.51161 18.0024 3.60534 18.7933 2.19933 20.1993C0.793323 21.6053 0.00238179 23.5116 0 25.5V31.5H3V25.5C3.00119 24.3069 3.47568 23.163 4.31934 22.3193C5.16299 21.4757 6.30689 21.0012 7.5 21H10.5V18ZM10.5 3C11.39 3 12.26 3.26392 13.0001 3.75839C13.7401 4.25285 14.3169 4.95566 14.6575 5.77792C14.9981 6.60019 15.0872 7.50499 14.9135 8.37791C14.7399 9.25082 14.3113 10.0526 13.682 10.682C13.0526 11.3113 12.2508 11.7399 11.3779 11.9135C10.505 12.0872 9.60019 11.9981 8.77792 11.6575C7.95566 11.3169 7.25285 10.7401 6.75839 10.0001C6.26392 9.26005 6 8.39002 6 7.5C6 6.30653 6.47411 5.16193 7.31802 4.31802C8.16193 3.47411 9.30653 3 10.5 3ZM10.5 0C9.01664 0 7.56659 0.439867 6.33322 1.26398C5.09985 2.08809 4.13856 3.25943 3.5709 4.62987C3.00325 6.00032 2.85472 7.50832 3.14411 8.96318C3.4335 10.418 4.14781 11.7544 5.1967 12.8033C6.24559 13.8522 7.58197 14.5665 9.03682 14.8559C10.4917 15.1453 11.9997 14.9968 13.3701 14.4291C14.7406 13.8614 15.9119 12.9001 16.736 11.6668C17.5601 10.4334 18 8.98336 18 7.5C18 5.51088 17.2098 3.60322 15.8033 2.1967C14.3968 0.790176 12.4891 0 10.5 0Z" fill="#FFA629"/>
</svg>
