<svg width="41" height="44" viewBox="0 0 41 44" fill="none" xmlns="http://www.w3.org/2000/svg">
<path d="M11.8248 40.939C9.98775 39.3287 8.6774 37.2031 8.06395 34.8385C7.45049 32.4738 7.56228 29.9793 8.38479 27.679L12.6448 15.819C12.7427 15.545 12.9168 15.3045 13.1466 15.1259C13.3764 14.9473 13.6523 14.838 13.942 14.8107C14.2318 14.7834 14.5233 14.8393 14.7824 14.9718C15.0415 15.1044 15.2574 15.3081 15.4048 15.559L16.0248 16.659C16.5048 17.439 16.6048 18.399 16.3048 19.259L14.3448 24.739L15.2048 25.499L27.1248 11.999C27.8248 11.199 29.0248 11.119 29.8448 11.819C30.6248 12.519 30.7048 13.739 30.0248 14.519L21.1248 24.579L22.2848 25.599L33.1848 13.239C33.8848 12.439 35.1048 12.359 35.8848 13.059C36.6848 13.759 36.7648 14.999 36.0248 15.779L25.1448 28.139L26.3048 29.159L35.6848 18.519C36.3848 17.719 37.6048 17.639 38.3848 18.339C39.1648 19.039 39.2648 20.259 38.5648 20.999L29.1848 31.679L30.3248 32.699L36.6648 25.519C37.3648 24.719 38.5848 24.639 39.3848 25.339C40.1848 26.039 40.2448 27.259 39.5448 27.999L29.1448 39.839C28.0806 41.0498 26.7882 42.0389 25.3413 42.7496C23.8945 43.4604 22.3217 43.8788 20.7129 43.981C19.1042 44.0831 17.4911 43.867 15.9659 43.3451C14.4408 42.8231 13.0336 42.0055 11.8248 40.939ZM19.2048 16.439L24.8848 9.99901C25.3648 9.45901 25.9648 8.99901 26.6248 8.73901L27.3848 7.17901C27.4979 6.95364 27.5648 6.70797 27.5816 6.4564C27.5985 6.20483 27.565 5.95243 27.483 5.71399C27.4011 5.47555 27.2723 5.25587 27.1043 5.06784C26.9364 4.87982 26.7325 4.72722 26.5048 4.61901C26.048 4.39997 25.5234 4.3695 25.0444 4.53417C24.5653 4.69884 24.1703 5.04543 23.9448 5.49901L18.9248 15.779C19.0248 15.999 19.1448 16.219 19.2048 16.439ZM18.0248 13.999V14.099L23.5848 2.75901C23.8019 2.29973 23.8291 1.77338 23.6607 1.29413C23.4922 0.814887 23.1415 0.421393 22.6848 0.199006C22.4593 0.086772 22.2137 0.0205032 21.9623 0.00405488C21.711 -0.0123935 21.4588 0.0213069 21.2206 0.103196C20.9824 0.185084 20.7628 0.313526 20.5747 0.48105C20.3866 0.648573 20.2336 0.851833 20.1248 1.07901L14.8448 11.899C16.1448 12.119 17.2848 12.859 18.0248 13.999ZM5.56479 26.659L9.82479 14.799C10.3648 13.299 11.6248 12.279 13.1248 11.939L17.4048 3.15901C17.626 2.70258 17.6576 2.17718 17.4927 1.69753C17.3278 1.21789 16.9799 0.822964 16.5248 0.599006C16.2993 0.486772 16.0537 0.420503 15.8023 0.404055C15.551 0.387607 15.2988 0.421307 15.0606 0.503196C14.8224 0.585084 14.6028 0.713526 14.4147 0.88105C14.2266 1.04857 14.0736 1.25183 13.9648 1.47901L6.02479 17.679L5.02479 17.179L5.44479 11.359C5.52479 10.459 5.16479 9.55901 4.52479 8.91901L3.60479 7.99901C2.66479 7.13901 1.12479 7.71901 1.02479 8.99901L0.0247905 21.579C-0.23521 25.659 1.56479 29.559 4.72479 31.999C4.68479 30.239 4.94479 28.419 5.56479 26.659Z" fill="#F24822"/>
</svg>
