<svg width="44" height="44" viewBox="0 0 44 44" fill="none" xmlns="http://www.w3.org/2000/svg">
<path d="M21.6562 0C19.3125 0 17.1844 0.190313 15.6937 0.482813C15.1125 0.598125 14.6625 0.73125 14.3156 0.85875C14.6625 0.98625 15.1125 1.11937 15.6937 1.23469C17.1844 1.52719 19.3125 1.7175 21.6562 1.7175C24 1.7175 26.1281 1.52719 27.6188 1.23469C28.2 1.11937 28.65 0.98625 28.9969 0.85875C28.65 0.73125 28.2 0.598125 27.6188 0.482813C26.1281 0.190313 24 0 21.6562 0ZM12.2062 0.497813C10.4156 1.33219 9.45 2.93719 9.69375 4.53656C9.88125 5.69156 10.7156 6.74062 12.0375 7.28437C12.7969 7.60312 13.7156 7.77188 14.7938 7.7625C16.0406 10.0781 17.7281 11.9906 19.5375 12.8812V16.9969C17.9437 17.9625 16.8844 19.9688 15.8438 22.0312C19.4812 22.9594 23.8406 22.9125 27.4594 22.0219C26.4281 19.9594 25.3594 17.9625 23.775 16.9969V12.8812C25.5844 11.9906 27.2719 10.0781 28.5188 7.7625C29.5969 7.77188 30.5156 7.60312 31.275 7.28437C32.5969 6.74062 33.4313 5.69156 33.6188 4.53656C33.8625 2.93719 32.8969 1.33219 31.1062 0.497813C31.1437 0.610313 31.1625 0.730312 31.1625 0.85875C31.1625 1.26656 30.9469 1.60031 30.7219 1.81031C30.5063 2.02031 30.2625 2.16 29.9906 2.28656C29.4469 2.53969 28.7625 2.72906 27.9375 2.89031C26.2969 3.21469 24.0938 3.405 21.6562 3.405C19.2188 3.405 17.0156 3.21469 15.375 2.89031C14.55 2.72906 13.8656 2.53969 13.3219 2.28656C13.05 2.16 12.8063 2.02031 12.5906 1.81031C12.3656 1.60031 12.15 1.26656 12.15 0.85875C12.15 0.730312 12.1687 0.610313 12.2062 0.497813ZM12.825 2.02687C13.0406 3.37125 13.4344 4.73719 13.9781 6.03375C13.4531 5.98219 13.0313 5.87344 12.6844 5.73C11.8031 5.36438 11.4469 4.82719 11.3625 4.27594C11.25 3.5325 11.6719 2.57437 12.825 2.02687ZM30.4875 2.02687C31.6406 2.57437 32.0625 3.5325 31.95 4.27594C31.8656 4.82719 31.5094 5.36438 30.6281 5.73C30.2813 5.87344 29.8594 5.98219 29.3344 6.03375C29.8781 4.73719 30.2719 3.37125 30.4875 2.02687ZM37.1156 22.6125C36.1594 22.6313 35.2313 23.1 34.425 23.9437C33.525 24.9094 32.8312 26.3625 32.6531 28.0406C32.475 29.7188 32.8312 31.2844 33.5062 32.4187C34.1906 33.5625 35.1563 34.2563 36.2531 34.3688C37.3594 34.4906 38.4469 34.0219 39.3562 33.0563C40.2656 32.0906 40.95 30.6375 41.1375 28.9594C41.3156 27.2812 40.9594 25.7156 40.2844 24.5813C39.5906 23.4375 38.6344 22.7437 37.5281 22.6312C37.3875 22.6125 37.2562 22.6125 37.1156 22.6125ZM6.19687 22.6125C6.05625 22.6125 5.91562 22.6125 5.78437 22.6312C4.67812 22.7531 3.72188 23.4563 3.0375 24.5813C2.35313 25.725 1.99687 27.2906 2.18437 28.9688C2.3625 30.6469 3.04687 32.1 3.95625 33.0656C4.86562 34.0219 5.95313 34.5 7.05938 34.3781C8.16563 34.2563 9.12188 33.5625 9.80625 32.4281C10.4906 31.2844 10.8469 29.7188 10.6594 28.0406C10.4812 26.3625 9.79687 24.9094 8.87812 23.9437C8.09062 23.1094 7.15312 22.6406 6.19687 22.6125ZM26.625 23.9344C25.6125 24.1312 24.5719 24.2719 23.5125 24.3469C24.7781 28.4531 27.0188 32.175 29.4938 35.7937C30.0188 35.025 30.6 34.4156 31.2375 33.9281C31.5188 33.7125 31.8094 33.525 32.1 33.3656L32.1094 33.3562C32.0906 33.3281 32.0813 33.3094 32.0625 33.2812C31.6969 32.6719 31.4156 31.9875 31.2188 31.2469C29.5406 29.175 27.8531 26.9719 26.625 23.9344ZM16.6781 23.9531C15.45 26.9719 13.7719 29.175 12.1031 31.2375C11.9063 31.9781 11.6156 32.6719 11.25 33.2906C11.2406 33.3094 11.2219 33.3375 11.2031 33.3562L11.2125 33.3656C11.5031 33.525 11.7938 33.7125 12.075 33.9281C12.7125 34.4156 13.2937 35.025 13.8187 35.7937C16.2937 32.1844 18.525 28.4625 19.8 24.3562C18.7406 24.2812 17.6906 24.15 16.6781 23.9531ZM40.1813 34.6031C39.0281 35.625 37.5937 36.2156 36.075 36.0469C34.9781 35.9344 33.9938 35.4375 33.1969 34.6969C32.8688 34.8563 32.5594 35.0438 32.2688 35.2688C30.8438 36.3563 29.5969 39.1875 28.6969 43.3125H43.3125V37.7063C43.1062 37.4438 42.4688 36.6281 41.5031 35.7C41.0906 35.2969 40.6313 34.9219 40.1813 34.6031ZM3.13125 34.6125C2.68125 34.9219 2.22187 35.2969 1.80937 35.7C0.84375 36.6281 0.20625 37.4438 0 37.7063V43.3125H14.6156C13.7156 39.1875 12.4688 36.3563 11.0438 35.2688C10.7531 35.0438 10.4437 34.8563 10.1156 34.6969C9.31875 35.4375 8.34375 35.9344 7.2375 36.0563C5.72812 36.225 4.275 35.6344 3.13125 34.6125Z" fill="#9747FF"/>
</svg>
